<svg height='100px' width='100px'  fill="#000" xmlns="http://www.w3.org/2000/svg" xmlns:xlink="http://www.w3.org/1999/xlink" version="1.1" x="0px" y="0px" viewBox="0 0 64 64" style="enable-background:new 0 0 64 64;" xml:space="preserve"><path d="M32,1c-2.321,0-4.65,0.272-6.93,0.795C23.793,1.285,22.42,1,21,1c-4.937,0-9.265,3.329-10.584,8.018  C10.277,9.011,10.139,9,10,9c-4.963,0-9,4.038-9,9c0,1.771,0.521,3.419,1.408,4.813C1.484,25.793,1,28.878,1,32  c0,17.093,13.906,31,31,31c3.291,0,6.536-0.536,9.66-1.562C43.225,62.432,45.065,63,47,63c3.982,0,7.573-2.384,9.153-6H57  c1.654,0,3-1.346,3-3c0-0.771-0.301-1.468-0.78-2c0.48-0.532,0.78-1.229,0.78-2c0-1.291-0.823-2.384-1.969-2.806  c0.53-1.441,1.246-2.833,2.152-4.145C62.025,40.379,63,37.25,63,34v-2C63,14.907,49.094,1,32,1z M10,11  c1.609,0,3.122,0.531,4.374,1.535l1.252-1.561c-0.952-0.764-2.053-1.317-3.221-1.641C13.558,5.617,17.04,3,21,3  c3.037,0,5.85,1.521,7.523,4.069l0.452,0.688l0.762-0.311C30.461,7.15,31.223,7,32,7c3.309,0,6,2.691,6,6  c0,0.102-0.019,0.2-0.024,0.301C35.101,14.171,33,16.844,33,20h2c0-2.757,2.243-5,5-5c2.104,0,3.913,1.289,4.647,3.175  c-4.474,0.668-8.373,3.228-10.844,6.825H24v-6.303l-5-7.5l-5,7.5V25h-4c-3.859,0-7-3.14-7-7S6.141,11,10,11z M24.249,47.842  c1.729-0.444,3.036-1.765,3.529-3.41C29.105,45.096,30,46.461,30,48c0,1.897-1.349,3.546-3.207,3.92l-0.827,0.167l0.024,0.843  C25.993,52.984,25.996,53.031,26,53c0,1.654-1.346,3-3,3s-3-1.346-3-3V43c0-1.654,1.346-3,3-3s3,1.346,3,3  c0,1.37-0.925,2.565-2.249,2.906L24.249,47.842z M22,34h-2V20h2V34z M16.868,18L19,14.803L21.132,18H16.868z M16,20h2v14h-2V20z   M16,36h6v2.108c-1.218,0.249-2.279,0.935-3,1.895c-0.721-0.96-1.782-1.646-3-1.895V36z M3.962,24.655C5.561,26.107,7.675,27,10,27  h4v11.101c-2.065,0.421-3.649,2.125-3.933,4.237c-1.652,0.565-2.952,1.817-3.602,3.395C4.256,41.642,3,36.965,3,32  C3,29.513,3.334,27.052,3.962,24.655z M8.028,48.299C8.017,48.2,8,48.102,8,48c0-1.543,0.9-2.911,2.233-3.573  C10.851,46.486,12.742,48,15,48h1v-2h-1c-1.654,0-3-1.346-3-3s1.346-3,3-3s3,1.346,3,3v10c0,1.435-1.01,2.622-2.393,2.905  C12.635,53.861,10.061,51.28,8.028,48.299z M17.681,57.203c0.511-0.322,0.96-0.727,1.321-1.204C19.915,57.213,21.367,58,23,58  c2.529,0,4.626-1.888,4.955-4.328C30.34,52.85,32,50.578,32,48c0-2.583-1.675-4.844-4.067-5.662  c-0.284-2.111-1.868-3.815-3.933-4.237V27h8.649c-0.958,1.941-1.547,4.088-1.636,6.356c-0.137,3.484,0.833,6.836,2.805,9.693  c0.906,1.311,1.621,2.703,2.152,4.144C34.823,47.616,34,48.709,34,50c0,0.771,0.301,1.468,0.78,2c-0.48,0.532-0.78,1.229-0.78,2  c0,1.654,1.346,3,3,3h0.847c0.479,1.096,1.145,2.075,1.949,2.912C37.257,60.622,34.646,61,32,61  C26.794,61,21.909,59.614,17.681,57.203z M47,36c-1.103,0-2-0.897-2-2s0.897-2,2-2s2,0.897,2,2S48.103,36,47,36z M57,49  c0.552,0,1,0.449,1,1s-0.448,1-1,1H37c-0.552,0-1-0.449-1-1s0.448-1,1-1H57z M47,61c-2.878,0-5.491-1.565-6.903-4h13.805  C52.491,59.435,49.878,61,47,61z M57,55H37c-0.552,0-1-0.449-1-1s0.448-1,1-1h20c0.552,0,1,0.449,1,1S57.552,55,57,55z   M58.536,41.913c-1.104,1.6-1.949,3.31-2.55,5.087H48v-9.142c1.721-0.447,3-2,3-3.858c0-2.206-1.794-4-4-4s-4,1.794-4,4  c0,1.858,1.279,3.411,3,3.858V47h-7.986c-0.601-1.776-1.446-3.487-2.55-5.086c-1.725-2.498-2.572-5.43-2.453-8.479  c0.283-7.18,6.124-13.074,13.297-13.418c3.868-0.187,7.551,1.18,10.35,3.848C59.458,26.533,61,30.133,61,34  C61,36.842,60.148,39.579,58.536,41.913z M58.037,22.417c-3.078-2.934-7.08-4.472-11.327-4.397C45.848,15.066,43.156,13,40,13  c0-4.411-3.589-8-8-8c-0.77,0-1.527,0.11-2.261,0.327c-0.58-0.761-1.257-1.423-1.994-1.999C29.157,3.118,30.58,3,32,3  c13.508,0,24.887,9.284,28.096,21.805C59.495,23.955,58.81,23.153,58.037,22.417z"></path></svg>